<svg width="24" height="24" viewBox="0 0 24 24" fill="none" xmlns="http://www.w3.org/2000/svg">
<path d="M14.7498 7.45969L11.9998 3.92969L13.9698 3.53969L16.7098 7.06969L14.7498 7.45969ZM21.6198 6.09969L20.8398 2.17969L16.9098 2.95969L19.6498 6.49969L21.6198 6.09969ZM11.8098 8.04969L9.06983 4.49969L7.09983 4.90969L9.84983 8.43969L11.8098 8.04969ZM4.15983 5.49969L3.17983 5.68969C2.92223 5.74049 2.67719 5.84163 2.45876 5.98733C2.24033 6.13303 2.05281 6.32042 1.90695 6.53874C1.76109 6.75706 1.65976 7.00203 1.60878 7.2596C1.55779 7.51716 1.55815 7.78226 1.60983 8.03969L1.99983 9.99969L6.89983 9.02969L4.15983 5.49969ZM3.99983 19.9997V11.9997H19.9998V13.0897C20.7198 13.2097 21.3898 13.4597 21.9998 13.8097V9.99969H1.99983V19.9997C1.99983 20.5301 2.21054 21.0388 2.58562 21.4139C2.96069 21.789 3.4694 21.9997 3.99983 21.9997H13.8098C13.4598 21.3897 13.2198 20.7197 13.0898 19.9997H3.99983ZM21.3398 15.8397L17.7498 19.4297L16.1598 17.8397L14.9998 18.9997L17.7498 21.9997L22.4998 17.2497L21.3398 15.8397Z" fill="#191919"/>
</svg>
